<?xml version="1.0" encoding="UTF-8" standalone="no"?>
<!-- Created with Inkscape (http://www.inkscape.org/) -->

<svg
   xmlns:dc="http://purl.org/dc/elements/1.1/"
   xmlns:cc="http://creativecommons.org/ns#"
   xmlns:rdf="http://www.w3.org/1999/02/22-rdf-syntax-ns#"
   xmlns:svg="http://www.w3.org/2000/svg"
   xmlns="http://www.w3.org/2000/svg"
   xmlns:sodipodi="http://sodipodi.sourceforge.net/DTD/sodipodi-0.dtd"
   xmlns:inkscape="http://www.inkscape.org/namespaces/inkscape"
   width="274.19754"
   height="244.32741"
   id="svg2"
   version="1.1"
   inkscape:version="0.47 r22583"
   sodipodi:docname="cat_paw_prints_fuzzy.svg">
  <defs
     id="defs4">
    <inkscape:perspective
       sodipodi:type="inkscape:persp3d"
       inkscape:vp_x="0 : 526.18109 : 1"
       inkscape:vp_y="0 : 1000 : 0"
       inkscape:vp_z="744.09448 : 526.18109 : 1"
       inkscape:persp3d-origin="372.04724 : 350.78739 : 1"
       id="perspective10" />
    <inkscape:perspective
       id="perspective2881"
       inkscape:persp3d-origin="0.5 : 0.33333333 : 1"
       inkscape:vp_z="1 : 0.5 : 1"
       inkscape:vp_y="0 : 1000 : 0"
       inkscape:vp_x="0 : 0.5 : 1"
       sodipodi:type="inkscape:persp3d" />
    <filter
       inkscape:collect="always"
       id="filter3733"
       color-interpolation-filters="sRGB">
      <feGaussianBlur
         inkscape:collect="always"
         stdDeviation="4.2882497"
         id="feGaussianBlur3735" />
    </filter>
    <inkscape:perspective
       id="perspective3747"
       inkscape:persp3d-origin="0.5 : 0.33333333 : 1"
       inkscape:vp_z="1 : 0.5 : 1"
       inkscape:vp_y="0 : 1000 : 0"
       inkscape:vp_x="0 : 0.5 : 1"
       sodipodi:type="inkscape:persp3d" />
    <inkscape:perspective
       id="perspective3747-5"
       inkscape:persp3d-origin="0.5 : 0.33333333 : 1"
       inkscape:vp_z="1 : 0.5 : 1"
       inkscape:vp_y="0 : 1000 : 0"
       inkscape:vp_x="0 : 0.5 : 1"
       sodipodi:type="inkscape:persp3d" />
    <inkscape:perspective
       id="perspective3747-9"
       inkscape:persp3d-origin="0.5 : 0.33333333 : 1"
       inkscape:vp_z="1 : 0.5 : 1"
       inkscape:vp_y="0 : 1000 : 0"
       inkscape:vp_x="0 : 0.5 : 1"
       sodipodi:type="inkscape:persp3d" />
    <inkscape:perspective
       id="perspective3789"
       inkscape:persp3d-origin="0.5 : 0.33333333 : 1"
       inkscape:vp_z="1 : 0.5 : 1"
       inkscape:vp_y="0 : 1000 : 0"
       inkscape:vp_x="0 : 0.5 : 1"
       sodipodi:type="inkscape:persp3d" />
    <filter
       inkscape:collect="always"
       id="filter3808"
       x="-0.10512392"
       width="1.2102478"
       y="-0.069945037"
       height="1.1398901"
       color-interpolation-filters="sRGB">
      <feGaussianBlur
         inkscape:collect="always"
         stdDeviation="2.3569631"
         id="feGaussianBlur3810" />
    </filter>
    <filter
       inkscape:collect="always"
       id="filter3812"
       x="-0.1017767"
       width="1.2035534"
       y="-0.071509823"
       height="1.1430197"
       color-interpolation-filters="sRGB">
      <feGaussianBlur
         inkscape:collect="always"
         stdDeviation="2.2819158"
         id="feGaussianBlur3814" />
    </filter>
    <filter
       inkscape:collect="always"
       id="filter3816"
       x="-0.10683373"
       width="1.2136675"
       y="-0.069208056"
       height="1.1384161"
       color-interpolation-filters="sRGB">
      <feGaussianBlur
         inkscape:collect="always"
         stdDeviation="2.2255243"
         id="feGaussianBlur3818" />
    </filter>
    <filter
       inkscape:collect="always"
       id="filter3820"
       x="-0.10558497"
       width="1.21117"
       y="-0.069742404"
       height="1.1394848"
       color-interpolation-filters="sRGB">
      <feGaussianBlur
         inkscape:collect="always"
         stdDeviation="2.2580057"
         id="feGaussianBlur3822" />
    </filter>
  </defs>
  <sodipodi:namedview
     id="base"
     pagecolor="#ffffff"
     bordercolor="#666666"
     borderopacity="1.0"
     inkscape:pageopacity="0.0"
     inkscape:pageshadow="2"
     inkscape:zoom="1.2649124"
     inkscape:cx="39.245519"
     inkscape:cy="154.32196"
     inkscape:document-units="px"
     inkscape:current-layer="layer1"
     showgrid="false"
     inkscape:window-width="1440"
     inkscape:window-height="852"
     inkscape:window-x="-4"
     inkscape:window-y="-3"
     inkscape:window-maximized="1" />
  <metadata
     id="metadata7">
    <rdf:RDF>
      <cc:Work
         rdf:about="">
        <dc:format>image/svg+xml</dc:format>
        <dc:type
           rdf:resource="http://purl.org/dc/dcmitype/StillImage" />
        <dc:title></dc:title>
      </cc:Work>
    </rdf:RDF>
  </metadata>
  <g
     inkscape:label="Layer 1"
     inkscape:groupmode="layer"
     id="layer1"
     transform="translate(-198.45082,-215.41884)">
    <g
       id="g3857">
      <path
         sodipodi:nodetypes="cccccccccccccccccc"
         id="path2887"
         d="m 230.31475,398.87202 c 11.17259,-12.772 35.25653,-11.49938 43.60328,-26.27377 4.58281,-8.11192 -3.06153,-19.15125 0,-27.95082 1.8743,-5.38717 5.5283,-10.84815 10.62131,-13.41639 15.14894,-7.63913 31.16057,0.75806 48.07542,-0.55902 12.16658,-0.94735 27.75737,-10.0129 39.13114,-5.59017 9.36213,3.64049 17.24404,13.1466 19.56558,22.91968 2.17256,9.14592 -5.03115,25.71475 -5.03115,27.95082 0,2.23607 8.88848,17.52521 19.56557,23.47868 6.38048,3.55772 19.40147,0.86486 22.91967,7.26722 5.41791,9.85943 -3.1367,18.00019 -8.38524,27.95081 -2.68513,5.09069 -9.95897,14.7291 -15.09344,17.32952 -11.8971,6.02545 -26.45684,-6.68219 -39.69017,-5.03115 -11.12509,1.38801 -20.09388,12.38033 -31.30492,12.29836 -12.28391,-0.0898 -21.82103,-14.33506 -34.1,-13.97541 -10.33024,0.30257 -17.7111,14.81404 -27.95082,13.41639 -21.58872,-2.94672 -44.40594,-21.78783 -49.19344,-43.04426 -1.33864,-5.94357 3.2559,-12.18493 7.26721,-16.77049 z"
         style="fill:#000000;fill-opacity:1;stroke:#000000;stroke-width:1px;stroke-linecap:butt;stroke-linejoin:miter;stroke-opacity:1" />
      <path
         sodipodi:nodetypes="csssc"
         id="path3737"
         d="m 249.3213,323.68433 c 3.3541,29.40031 -12.44732,36.61558 -27.11229,36.61558 -14.66497,0 -23.75819,-13.36445 -23.75819,-36.05656 0,-22.69211 14.12437,-41.64672 28.78934,-41.64672 14.66497,0 22.08114,18.39559 22.08114,41.0877 z"
         style="color:#000000;fill:#000000;fill-opacity:1;fill-rule:nonzero;stroke:none;stroke-width:1;marker:none;visibility:visible;display:inline;overflow:visible;enable-background:accumulate" />
      <path
         sodipodi:nodetypes="csssc"
         id="path3737-0"
         d="m 402.77131,255.2048 c 2.23607,30.51834 -11.8883,41.08771 -26.55327,41.08771 -14.66497,0 -29.90738,-13.36445 -26.55328,-41.08771 2.72553,-22.52783 11.88831,-35.49754 26.55328,-35.49754 14.66497,0 26.55327,12.80543 26.55327,35.49754 z"
         style="color:#000000;fill:#000000;fill-opacity:1;fill-rule:nonzero;stroke:none;stroke-width:1;marker:none;visibility:visible;display:inline;overflow:visible;enable-background:accumulate" />
      <path
         sodipodi:nodetypes="csssc"
         id="path3737-6"
         d="m 472.64835,326.4144 c 0,20.73924 -10.21932,31.48695 -24.87622,31.93174 -33.67152,1.02181 -23.7582,-24.47611 -23.7582,-45.21534 0,-20.73924 7.9752,-31.93173 22.64017,-31.93173 14.66497,0 25.99425,24.47609 25.99425,45.21533 z"
         style="color:#000000;fill:#000000;fill-opacity:1;fill-rule:nonzero;stroke:none;stroke-width:1;marker:none;visibility:visible;display:inline;overflow:visible;enable-background:accumulate" />
      <path
         sodipodi:nodetypes="csssc"
         id="path3737-0-3"
         d="m 322.94913,253.11567 c 2.23607,32.07006 -11.8883,43.17684 -26.55327,43.17684 -14.66497,0 -29.90738,-14.04398 -26.55328,-43.17684 2.72553,-23.67328 10.77028,-33.7778 26.55328,-37.30244 14.34463,-3.20343 26.55327,13.45653 26.55327,37.30244 z"
         style="color:#000000;fill:#000000;fill-opacity:1;fill-rule:nonzero;stroke:none;stroke-width:1;marker:none;visibility:visible;display:inline;overflow:visible;enable-background:accumulate" />
    </g>
  </g>
</svg>
